<?xml version="1.0" encoding="UTF-8"?>
<svg id="Layer_1" xmlns="http://www.w3.org/2000/svg" version="1.1" viewBox="0 0 286.49 276.88">
  <!-- Generator: Adobe Illustrator 29.0.1, SVG Export Plug-In . SVG Version: 2.1.0 Build 192)  -->
  <path d="M58.44,150.97c.5-.31.49-.7.55-1.22.83-7.08-.46-14.14.79-21.78,5.18-31.65,31.02-59.29,62.66-65.36,6.21-5.76,12.16-14.72,20.23-17.86,8.19-3.19,17.04-.82,25.48-2.02,8.67-13.9,16.81-28.12,25.09-42.26.2-.35,0-.46.62-.47.52,0,6.29,3.08,7.02,3.6.29.21.64.32.54.78l-27.9,47.07c-8.77,1.04-21.96-2.09-29.66,2.61-3,1.83-4.91,4.47-7.29,6.82-6.33,6.26-12.51,12.65-18.89,18.84-2.84,4.69.95,9.7,6.18,7.94l19.58-19.22c3.39,2.27,6.81,4.62,10.76,5.83,9.68,2.97,26.42,3.3,30.02-8.6.71-.5,5.32,1.4,6.4,1.81,4.97,1.91,9.89,4.69,14.48,7.39.72.43,4.22,2.93,4.47,2.75L256.46.18c.24-.19.45-.07.7,0,.4.1,6.1,3.29,6.35,3.56.43.46.44.73.28,1.33l-47.23,78.38.12.46c13.81,11.4,23.44,28.19,27.55,45.63,5.91,25.12.83,52.88,2.71,78.4,1.07,14.42,10.78,27.54,24.68,31.74,1.49.45,5.56,1.59,6.88,1.59h8.29v8.64c-1.06.86-3.34.6-4.78.54-25.04-.96-42.46-19.21-43.89-43.93-1.59-27.51,4.36-58.79-5.49-84.8-7.83-20.68-23.58-36.68-43.8-45.46-.78-.11-3.36,2.54-4.36,3.26-8.95,6.49-22.55,6.46-32.75,3.21-1.42-.45-6.78-3.14-7.51-2.95-7.29,5.67-12.31,16.73-22.51,17.09-.69,7.5-1.99,16.73,8.86,14.25v-7.94c0-.65,1.27-3.56,1.7-4.3,4.21-7.37,14.17-8.63,20.35-3,4.89-4.56,13.25-4.85,18.03.04,5.58-4.43,12.42-4.87,17.94-.08,2.6-1.75,5.52-3.46,8.8-3.42,12.78.15,14.07,11.05,13.61,21.36-.08,1.76-.61,3.79-.69,5.59.66.79,1.24.1,2.04,1.15,4,5.28,7.11,18.38,7.47,24.98,1.13,20.85-1.43,43.14-.03,63.86.34,5.05,7.66,37.69,35.04,52.42,8.9,4.78,17.42,6.29,23.16,6.81l-9.17,6.88c-23.15-4.21-42.28-19.89-51.55-41.38-11.46-26.57-4.25-61.73-6.29-90.34-.44-6.23-2.89-12.28-5.68-17.77l-.76.02c-5.09,3.52-11.33,2.19-15.95-1.36-5.4,4.63-12.56,4.46-17.99,0-5.29,4.54-12.45,4.57-17.64-.13-4.44,3.6-10.21,4.83-15.46,2.07-2.92-1.53-4.42-3.89-6.11-6.58-3.7-.13-6.71.33-10.23-1.05-5.61-2.2-8.5-7.14-8.23-13.11-.27,0-.56-.04-.83.05-.45.16-4.76,4.01-5.4,4.66-9.5,9.72-13.34,25.88-11.78,39.22.06.51.04.91.55,1.22h34.91l.53-.53v-13.4c.99-1.23,2.57-.15,3.7-.18,1.35-.03,2.95-.82,4.41-.18l.63.78-.28,21.97H18.06v-71.95h45.14v7.94c-.75.67-2.29.81-3.34.89-8.42.67-19.99.27-28.59,0-1.43-.04-3.26-1.04-4.39.16v54.49h31.56ZM67.96,150.97h17.63c1.24-1.47.18-3.72.16-5.45-.05-4.47.38-9.99,1.18-14.37,2.78-15.09,12.4-29.46,26.32-36.28.59-.85-1.91-2.63-2.44-3.34-2.85-3.81-3.71-8.6-2.29-13.21.16-.51,1.59-2.38.34-2.13-20.55,9.98-36.38,29.77-40.27,52.49-1.01,5.89-1.87,15.21-1.19,21.07.06.51.04.91.55,1.22ZM142.45,101.32c-1.21.28-2.75,2.17-2.99,3.36-.32,1.59-.34,9.54-.06,11.19.77,4.59,8,4.49,8.78,0,.31-1.82.26-8.98-.01-10.88-.39-2.76-3.03-4.28-5.71-3.66ZM160.44,101.33c-1.66.34-2.72,1.73-2.99,3.35-.35,2.12-.34,8.3-.08,10.5.59,5.16,7.77,5.38,8.74.62.36-1.79.31-8.54.08-10.5-.36-3.15-2.65-4.61-5.74-3.97ZM183.35,102.76c-1.46-1.83-5.34-2.11-6.96-.29-1.88,2.12-2.06,13.21-.23,15.24,2.33,2.6,7.2,1.66,7.92-1.91.38-1.87.29-8.43.08-10.5-.07-.69-.4-2.02-.81-2.54ZM196.41,101.33c-1.5.31-2.59,1.57-3,3,.46,3.41-1.61,10.85.82,13.48,1.92,2.08,5.91,1.85,7.23-.85,1.07-2.18,1.02-10.6.15-12.88s-2.77-3.24-5.2-2.75Z"/>
  <path d="M157.36,170.19c-.56,3.61-4.26,6.75-7.92,6.89H8.34c-4.02-.52-7.21-3.47-7.58-7.58v-92.08c.35-3.89,3.51-6.87,7.23-7.58,19.4-.18,38.82.26,58.22.03,4.5-.06,9.19-.78,13.74-.37.4.04,1.5.16,1.6.59v8.23H9.59l.02,89.91,138.93.02v-31.21c0-1.09,2.85-.16,3.35-.18,1.74-.05,3.59-.86,5.47,0v33.33Z"/>
  <path d="M287.15,269v7.88c-2.86-.16-5.72-.32-8.58-.47-3.25-.31-6.51-.62-9.76-.94l9.17-6.88c.21.03.43.07.64.1,2.84.1,5.69.2,8.53.31Z"/>
</svg>