<?xml version="1.0" encoding="UTF-8"?>
<svg id="Layer_1" xmlns="http://www.w3.org/2000/svg" version="1.1" viewBox="0 0 180.64 149.79">
  <!-- Generator: Adobe Illustrator 29.0.1, SVG Export Plug-In . SVG Version: 2.1.0 Build 192)  -->
  <defs>
    <style>
      .st0, .st1 {
        stroke: #000;
        stroke-miterlimit: 10;
        stroke-width: .28px;
      }

      .st1 {
        fill: #fff;
      }
    </style>
  </defs>
  <g id="TNWMbn.tif">
    <g>
      <path class="st0" d="M164.04,2c4.13,1.16,8.54,3.15,12.11,5.58,1.76,1.2,4.51,3,3.9,5.55-.15.61-.75.85-1.13,1.29-1.72,2.01-3.37,4.09-5.08,6.1-11.1,13.1-22.46,26.16-33.44,39.38,1.83,17.51,4,34.92,5.89,52.43-.03.69-.91,1.73-1.34,2.3-3.74,4.92-8.48,9.16-13.64,12.61-.84.28-1.9.04-2.68-.31-1.81-.82-3.8-1.96-5.6-2.8-18.42-8.61-36.96-17.08-55.21-25.97-.24-.12-1.39-.65-1.11-.08.18.36.51.8.14,1.21-.13.15-2.88,1.15-3.23,1.22-.65.13-1.06.03-1.09-.69-.05-1.07,1.13-.96,1.95-1.29.28-.11.33-.33.45-.38.13-.05,1.86-.31,1.51-.68l-9.23-4.17c-.35-.1-.13.62-.27.94-.22.5-2.56.94-3.19,1.23-.17.07-.26.5-.69.38-1.31-1.4-.1-1.75,1.13-2.2.69-.25,1.73-.33,2.15-.88l-9.22-4.17c-.12.23-.04.5-.16.77-.29.64-1.87.75-2.49.98-.13.05-.11.23-.27.3-.78.33-1.62.37-1.72-.66-.09-.91,2.53-1.5,3.23-1.67l-.16-.64-7.98-3.66c-.39,0-.51.56-.75.73-.35.25-.93.13-1.17.61-.82-.06-2.44,1.16-2.97.18-.96-1.77,3.52-1.64,2.93-2.46-.54.05-.84-.43-1.11-.58-1.55-.8-3.58-1.34-5.04-2.21-.25-.15-1.32-1.04-1.44-1.26-.93-1.64.72-2.59,1.98-3.11,15.57-6.46,31.27-12.65,46.92-19.04,8.6-3.51,17.27-7.34,25.86-10.8,2.8-1.13,6.32-2.37,9.37-2.01.76.09,3.47,1.02,3.95.83,1.99-2.05,4.01-4.08,5.97-6.16,11.32-11.97,22.74-24.25,34.11-36.28.18-.19.2-.49.42-.67,1.54-1.27,5.63-.32,7.44.19ZM163.36,4.56c-1.4-.41-2.94-.75-4.4-.66-.4.25.43,1,.68,1.21.54.43,1.74,1.15,2.37,1.53,3.45,2.07,9.03,4.53,13.05,5.13.4.06,1.9.32,2.07-.06l-.74-.73c-3.89-2.88-8.42-5.04-13.04-6.41ZM162.28,9.81c-1.97-1.09-3.97-2.17-5.46-3.9l-.47.21c-11.7,12.44-23.4,24.76-35.15,37.27-.71.76-1.41,1.56-2.08,2.36,0,.2.87.26,1.1.35,3.65,1.39,7.82,2.28,11.55,3.56,2.21.76,4.94,1.57,6.86,2.84,1.12.74,1.02,1.14,1.21,2.43.06.43-.13.95.22,1.26.35-.37.74-.7,1.08-1.07.42-.46.77-1.12,1.14-1.55,9.68-11.29,19.28-22.58,28.82-33.91.63-.75,1.27-1.52,1.89-2.26.43-.52,2.12-2.06,2.15-2.6,0-.16.02-.29-.13-.4-.14-.1-2.43-.45-2.92-.58-3.15-.84-6.96-2.43-9.8-4ZM119.74,48.83c-3.05-.85-7.74-2.46-10.78-1.92-2.13.38-4.01,1.43-5.9,2.18-21.24,8.45-42.33,17.18-63.42,25.97-.87.36-1.91.6-2.8.97.59.74,1.63.88,2.45,1.29,7.37,3.67,14.93,6.87,22.42,10.31,3.84,1.77,7.73,3.78,11.59,5.55.53.24,3.23,1.44,3.58,1.37l16.6-29.06c.75-1.2,2.7-.85,2.47.71-4.23,8.09-9.11,15.87-13.57,23.85-.62,1.11-1.19,2.28-1.77,3.41.55.09.89-.48,1.16-.65,10.34-6.22,20.94-11.98,31.26-18.16.98-.59,2.99-1.81,3.26.18.2,1.46-1.37,1.8-2.39,2.44-8.76,5.46-17.94,10.36-26.88,15.54-1.62.94-3.5,1.97-5.02,3.05-.17.12-.99.5-.99.63l47.6,22c.35-.02.17-2.22.2-2.63,1.15-16.05,2.86-32.14,4.31-48.17.32-3.51.14-10.02,1.96-12.84.43-.67,1.24-.84-.05-1.32-1.46-.54-3.11-.97-4.61-1.45-3.46-1.09-7.19-2.27-10.68-3.25ZM137.29,56.58c-.32-.07-.22.06-.3.18-.88,1.26-.76,4.6-.91,6.21-1.22,12.82-2.27,25.65-3.37,38.49-.51,6.01-1.3,11.98-1.35,18.04,0,.92-.14,1.26-.19,2.01-.03.37.13,1.47.21,1.89.03.16.06.24.2.34,2.02-1.27,3.68-2.89,5.55-4.34l.21-.46c2.42-2,4.48-4.4,6.29-6.97-1.84-17.37-3.85-34.73-5.92-52.07-.13-1.09-.03-2.24-.41-3.29ZM38.66,80.05c-1.76-.79-3.5-1.62-5.3-2.32-.28-.16-1.63.45-1.38.78,1.13.44,2.29.88,3.38,1.4,29.38,13.99,58.83,27.89,88.42,41.62.13.06.16.24.28.29.56.26,4.16,1.93,4.4,1.91.16-.01.27-.08.33-.23-.33-1.08.33-1.76-.79-2.41-1.28-.75-3.22-1.31-4.61-1.96-28.15-12.96-56.28-26.1-84.57-38.89-.11-.05-.13-.19-.16-.2Z"/>
      <path class="st0" d="M106.41,119.11c-.15.13-1.28.58-1.55.67-.45.15-1.55.5-1.94.41-.65-.15-.88-1.17-.47-1.54s3.97-1.71,4.34-.7c.2.29-.16.97-.38,1.17Z"/>
      <path class="st0" d="M70.27,121.62c.22-.17,2.51-.95,2.85-.99,1.24-.14,1.71.94.79,1.6-.21.15-2.8,1.07-3.08,1.1-.22.02-.44.01-.66-.02-.53-.43-.42-1.3.09-1.69Z"/>
      <path class="st0" d="M92.49,113.81c.2-.24,3.02-1.23,3.41-1.24,1.1-.03,1.29,1.2.59,1.67-.26.18-2.84,1.01-3.17,1.02-.86.02-1.38-.78-.83-1.45Z"/>
      <path class="st0" d="M70.86,138.58c.77,0,1.13.58.74,1.26-.25.43-.66.59-1.11.78-.42.18-2.28.79-2.59.72-.82-.2-.92-1.19-.29-1.71.89-.14,2.44-1.04,3.24-1.05Z"/>
      <path class="st0" d="M73.96,147.78c-.31.37-3.33,1.27-3.86,1.04s-.51-1.16-.13-1.47c.17-.14,3.04-1.15,3.3-1.16.84-.04,1.22.98.7,1.59Z"/>
      <path class="st0" d="M95.87,139.8c-.59.37-2.11.99-2.82,1.02-1.08.04-1.11-1.25-.46-1.68.28-.19,2.82-1.01,3.16-1.02.48-.01.98.22,1,.76s-.54.71-.89.92Z"/>
      <path class="st0" d="M90.53,122.95c.57-.1,1.11-.12,1.32.52.06.19-.2.86-.34,1-.12.12-2.9,1.1-3.18,1.14-1.03.14-1.32-.97-.65-1.6.21-.19,2.48-1,2.84-1.06Z"/>
      <path class="st0" d="M86.61,107.76c.36.26.41,1.18.08,1.45-.61.51-2.46.69-3.22,1.2-.81.17-1.47-.67-.93-1.34.2-.26.58-.25.77-.58.79.01,2.69-1.17,3.3-.72Z"/>
      <path class="st0" d="M49.04,121.08c.36.27.38.98.15,1.35-.27.45-2.7.93-3.29,1.3-.66.16-1.3-.45-1.11-1.11.16-.56,1.07-.6,1.48-.78.12-.05.11-.2.3-.27.45-.17,2.11-.75,2.46-.48Z"/>
      <path class="st0" d="M86.61,133.46c.33.4.12.97-.19,1.31-.72.08-3.37,1.38-3.85,1.07-.42-.28-.47-1.2-.13-1.48.67-.55,2.42-.72,3.22-1.2.28-.07.78.09.96.31Z"/>
      <path class="st0" d="M78.28,135.87c.71-.15,1.12.41.94,1.08-.26.98-2.84,1.29-3.69,1.68-.73.02-.97-1.09-.58-1.52.4-.45,2.68-.81,3.34-1.25Z"/>
      <path class="st0" d="M65.46,132.15s.05-.15.15-.21c.35-.17,2.49-.93,2.81-.94.99-.03,1.22,1.2.37,1.72-.43.26-2.47.92-2.96.95-.37.02-.76.02-.97-.35-.18-.88.05-.81.6-1.18Z"/>
      <path class="st0" d="M53.75,119.1s.07-.16.16-.2c.58-.24,2.26-.82,2.72-.36.59.59.08,1.34-.56,1.61-.29.12-2.85.89-3.01.88-.39-.02-.72-.37-.75-.75-.05-.83.86-.92,1.43-1.19Z"/>
      <path class="st0" d="M77.53,144.62c.13-.12,3.22-1.12,3.4-1.12.43,0,.71.41.85.77.02.24-.46.92-.68,1.02-.39.18-2.62.89-3,.91-.43.02-.91-.14-.98-.63-.01-.1.34-.89.41-.95Z"/>
      <path class="st0" d="M76.66,128.47c.22.26.17,1.03-.04,1.31-.16.21-2.99,1.19-3.38,1.21-1.1.06-1.27-1.11-.49-1.61.24-.16,2.78-1,3.11-1.04.23-.03.64-.04.8.14Z"/>
      <path class="st0" d="M84.06,125.79c.43.35.27,1.16-.18,1.42-.3.18-2.91,1.06-3.23,1.09-.97.08-1.16-1.21-.42-1.65.28-.17,2.55-.95,2.89-1.01.31-.05.67-.07.94.15Z"/>
      <path class="st0" d="M100.89,129.61c-.31.17-1.98.71-2.38.79-.35.07-.72.17-1.02-.08-.6-.49-.38-1.16.24-1.5.23-.13,2.95-1.06,3.12-1.06.69,0,1.17.68.73,1.28-.14.19-.35.18-.51.3-.09.07-.13.24-.19.27Z"/>
      <path class="st0" d="M18.7,82.6c-.06.03-.06.19-.3.29-.43.18-2.08.62-2.51.61-1.08-.02-1.14-1.17-.16-1.66.55-.27,3.13-1.12,3.6-.85.66,1.06.13,1.18-.63,1.6Z"/>
      <path class="st0" d="M118.94,131.5c-.19.15-1.18.32-1.47.45-.14.06-.13.24-.27.3-.66.25-2.35.98-2.53-.11-.23-1.38,2.29-1.49,3.17-2.07,1.01-.42,1.89.82,1.1,1.44Z"/>
      <path class="st0" d="M108.53,126.75c-.47.28-2.25.99-2.82,1.02-.79.05-1.26-.57-.85-1.27.35-.6,2.95-1.14,3.69-1.44,1.15.48.93,1.12-.02,1.68Z"/>
      <path class="st0" d="M11.03,85.17c-.53.27-1.55.74-2.17.85-1.24.22-1.34-.23-1.25-1.36.02-.09.83-.44,1.01-.5.3-.11,2.41-.77,2.54-.77.66.02,1.03.45.9,1.11-.07.33-.67.48-1.03.66Z"/>
      <path class="st0" d="M79.22,111.86c-.13.13-3.32,1.23-3.54,1.23-.31,0-.84-.41-.88-.73-.08-.75.68-.8,1.11-1.02.09-.05.1-.19.22-.24.33-.14,2.3-.78,2.54-.78.72,0,.94,1.16.55,1.55Z"/>
      <path class="st0" d="M46.63,113.54c.46.32.4,1.22-.2,1.55-.28.15-3.12,1.06-3.34,1.06-.7-.02-1.1-1.15-.1-1.66.5-.25,2.48-1.05,2.95-1.06.14,0,.6.05.69.12Z"/>
      <path class="st0" d="M85.21,116.37c.2-.17,2.98-1.1,3.27-1.11.71-.03,1.03.62.84,1.25-.18.58-2.92,1.12-3.56,1.43-.99.2-1.12-1.09-.55-1.57Z"/>
      <path class="st0" d="M66.56,124.91c-.92.03-2.51,1.05-3.28,1.11-.6.04-1.3-.7-.86-1.27.3-.08.62-.53.77-.61.32-.17,2.32-.8,2.66-.82,1.05-.06,1.22.83.71,1.59Z"/>
      <path class="st0" d="M12.64,92.97c-.4.16-1.1.54-1.61.61-1.07.16-1.42-.87-.77-1.61,1.22-.08,3.97-2.18,4.27-.13-.36.74-1.2.85-1.89,1.13Z"/>
      <path class="st0" d="M77.54,119.19s.5-.3.55-.32c.52-.24,2.2-.85,2.72-.92.77-.11,1.23.55.98,1.25-.18.5-2.86,1.07-3.42,1.43-.91.38-1.32-.96-.82-1.44Z"/>
      <path class="st0" d="M32.57,103.32s-.07.21-.3.3c-.76.29-2.3.71-2.24-.55,0-.14.15-.46.25-.56.28-.29,3.21-1.32,3.65-1.25.26.04.63.42.68.66.21.94-1.47,1.18-2.05,1.41Z"/>
      <path class="st0" d="M93.71,131.99c-.51.41-2.13,1.06-2.82,1.16-1.2.17-1.46-1.12-.91-1.48.82-.53,2.44-.7,3.36-1.2.68-.1,1.06.68.84,1.26-.08.23-.34.15-.48.26Z"/>
      <path class="st0" d="M27.1,78.69c.63.77-.42,1.15-.87,1.56-1.32.16-4.24,2-3.31-.81l3.36-1.07c.24-.04.68.13.82.31Z"/>
      <path class="st0" d="M59.15,126.19c.89,1.89-2.46,1.78-3.55,2.53-1.1-.41-1.2-1.02-.17-1.67.44-.28,2.08-.94,2.62-1.01.37-.05.78-.04,1.1.16Z"/>
      <path class="st0" d="M20.05,90.41s-.07.18-.15.21c-.53.19-1.76.65-2.19.22-.21-.28-.22-.93,0-1.22s3.29-1.3,3.69-1.24c.62.09.87.96.51,1.4-.18.22-1.49.51-1.85.64Z"/>
      <path class="st0" d="M89.19,142c-.04.06-.23.08-.31.16-.12.13-.18.33-.31.4-.24.13-2.7.9-2.97.91-1.15.06-1.13-1.24-.42-1.64.28-.16,2.76-.97,3.05-.99.65-.04,1.31.55.95,1.15Z"/>
      <path class="st0" d="M27.99,87.71s-.06.21-.21.26c-.59.21-2.08.76-2.53.3-1.5-1.5,2.86-2.07,3.58-2.49.64.08.92.66.72,1.25-.17.48-1.17.52-1.55.67Z"/>
      <path class="st0" d="M61.71,133.99c.14.32.2.76.03,1.07-.18.33-2.97,1.27-3.45,1.31-.71.06-1.13-.19-.97-.97.15-.72.7-.5,1.09-.65.13-.05.11-.23.27-.3.39-.16,1.77-.67,2.12-.71s.62.11.91.24Z"/>
      <path class="st0" d="M24.15,96.04l.4.82c-.38,1.09-1.69,1-2.57,1.31-.13.05-.11.23-.27.3-.37.16-.93.35-1.31.16-.48-.36-.59-1.16-.05-1.53.31-.22,2.54-.98,2.98-1.06.21-.04.65-.1.82,0Z"/>
      <path class="st0" d="M74.08,103.49s.04-.15.16-.2c.32-.13,1.67-.52,1.96-.5.93.07,1.09,1.23.16,1.71-.48.24-2.92,1.01-3.37.94-.5-.08-.71-.68-.45-1.12.22-.37,1.1-.63,1.53-.83Z"/>
      <path class="st0" d="M98.87,121.8c-.14.1-3.09,1.13-3.26,1.13-.72,0-1.06-1.16-.6-1.56.13-.11,3.04-1.12,3.3-1.15,1.23-.12,1.28,1.06.57,1.58Z"/>
      <path class="st0" d="M36.62,108.73c.63.6.36,1.1-.37,1.43-.33.15-2.73.92-2.99.93-.67.03-1.11-.61-.8-1.22.28-.58,2.25-.79,2.79-1.08.17-.09.12-.34.44-.41.6-.12.62.04.94.35Z"/>
      <path class="st0" d="M68.43,113.99c.06-.03.08-.21.3-.3.66-.29,2.07-.77,2.75-.57.57.17.5,1.21-.05,1.51-.41.23-2.75.99-3.18,1.01-.7.03-.99-.29-.86-1,.1-.52.74-.49,1.04-.65Z"/>
      <path class="st0" d="M46.43,98.21s-.04.2-.13.22c-1.08.26-1.73-.97-.98-1.54.14-.11,3.09-1.13,3.32-1.14.41-.03.65.14.84.49.64,1.16-2.31,1.76-3.04,1.97Z"/>
      <path class="st0" d="M3.21,87.71s-.06.21-.21.26c-1.26.49-3.88,1.38-2.71-.99.9-.03,3.9-1.84,4.2-.43.21,1.02-.72.91-1.28,1.16Z"/>
      <path class="st0" d="M102.86,137.23s-.05.19-.21.26c-.32.13-1.8.62-2.07.63-.73.03-1.1-.72-.8-1.34.16-.32,3.2-1.35,3.64-1.35.25,0,.49.09.67.27.38,1.29-.44,1.15-1.24,1.53Z"/>
      <path class="st0" d="M50.06,112.06c.29-.3,1.3-.45,1.73-.63.23-.09.22-.29.36-.34s1.1-.33,1.22-.34c.78-.07,1.37.69.95,1.32-.35.53-3.01,1.04-3.71,1.43-.7.04-.97-1.02-.56-1.45Z"/>
      <path class="st0" d="M111.54,132.91c.45.45.06,1.12-.41,1.34-.29.14-.81.42-1.01.5-.28.12-2.09.7-2.24.69-.51-.05-.93-.89-.62-1.39.27-.44,3.79-1.63,4.28-1.14Z"/>
      <path class="st0" d="M66.54,106.18s.04-.15.16-.2c.22-.09,1.88-.64,1.98-.64.63,0,.94.94.59,1.49-.21.33-3.1,1.28-3.54,1.25s-1.01-.44-.87-.94,1.18-.75,1.68-.96Z"/>
      <path class="st0" d="M115.38,124.18s-.06.2-.21.26c-.39.16-1.84.63-2.19.63-.93.01-.96-1.32-.3-1.65.96-.14,3.31-1.63,4.01-.58.61.92-.87,1.14-1.31,1.33Z"/>
      <path class="st0" d="M51.75,103.31c.19.55.36,1.16-.25,1.5-.33.18-2.99,1.04-3.3,1.03-.35,0-.71-.35-.82-.68-.32-1.01,2.02-1.32,2.65-1.55.25-.09.23-.28.36-.33.29-.12,1.12-.23,1.34.02Z"/>
      <path class="st0" d="M124.55,129.44s-.04.16-.16.2c-.16.06-1.09.37-1.21.39-.58.1-.95-.31-.97-.87-.02-.66.58-.84,1.07-1.06.34-.15,2.26-.83,2.52-.85.46-.04,1.08.44.95.95-.16.65-1.57.99-2.21,1.24Z"/>
      <path class="st0" d="M64.27,115.96c.31.33.15.9-.16,1.18-.23.21-3.04,1.19-3.39,1.2-.73.02-1.13-.8-.65-1.33.27-.3.72-.24,1.05-.41.09-.04.09-.24.26-.31.64-.26,2.37-.88,2.89-.33Z"/>
      <path class="st0" d="M37.46,116.54s.07-.17.15-.21c.4-.14,1.15-.37,1.51-.07s.38,1.12-.06,1.41c-.21.14-2.86,1.01-3.14,1.04-.56.06-1.17-.17-1.11-.84.09-.87,1.91-1.09,2.64-1.34Z"/>
      <path class="st0" d="M29.6,95.51c-.11.05-.2.28-.71.43-1.28.37-1.67-.37-1.07-1.47.92-.13,3.54-1.6,4.15-.67.85,1.3-1.77,1.43-2.37,1.71Z"/>
      <path class="st0" d="M59.41,108.75s.06-.2.31-.29c.46-.18,1.92-.63,2.14.03.07.2.07.81-.04.99-.12.2-3.46,1.39-3.76,1.35-.27-.04-.57-.34-.61-.62-.19-1.11,1.25-1.18,1.98-1.45Z"/>
      <path class="st0" d="M39.48,100.94c-.39.18-1.27.43-1.63.17-.33-.24-.4-1.05-.12-1.34.19-.2,2.92-1.21,3.29-1.25,1.03-.11,1.58.9.34,1.55-.56.29-1.37.64-1.88.87Z"/>
      <path class="st0" d="M24.76,106.01s-.08.21-.21.26c-.33.14-.91.38-1.25.37-.8-.03-1.04-1.21-.4-1.63.29-.19,2.91-1.05,3.25-1.06.77-.02,1.29.85.59,1.4-.38.3-1.46.45-1.98.65Z"/>
      <path class="st0" d="M42.57,106.18s.05-.15.16-.2c.66-.26,1.49-.51,1.63.47.1.66-.06.84-.64,1.09-.46.2-2.22.78-2.66.84-.96.14-1.57-.8-.94-1.35.28-.24,1.94-.67,2.45-.86Z"/>
      <path class="st0" d="M39.36,90.93c.15.15.2.62.17.83-.11.69-1.58.86-2.17,1.08-.33.12-.71.54-1.28.61-1.09.14-1.36-1.02-.78-1.46.23-.18,2.92-1.15,3.25-1.2.24-.04.63-.03.81.14Z"/>
      <path class="st0" d="M55.18,101.83c.38-.37,1.86-.65,2.42-.85.13-.05.12-.23.27-.3,1.65-.7,2.01.98,1.17,1.44-.23.13-3.14,1.11-3.31,1.12-.67.02-1.04-.93-.55-1.41Z"/>
      <path class="st0" d="M48.85,129.28c.32-.34,2.48-.93,2.86-.31.74,1.22-1.7,2.05-2.56,1.88-.7-.14-.72-1.14-.3-1.57Z"/>
      <path class="st0" d="M16.73,98.73c.22.4.33,1.13-.11,1.37-.61.34-2.33,1-2.72.17-.55-1.18,2.42-1.91,2.83-1.55Z"/>
      <path class="st0" d="M62.59,142.93c-1.01-.75.44-2.29,1.37-1.44s-.54,2.06-1.37,1.44Z"/>
      <path class="st0" d="M28.99,111.11s.4.57.41.61c.32,1.06-1.72,1.64-1.86.36-.08-.79.82-1.33,1.45-.97Z"/>
      <path class="st1" d="M119.74,48.83c3.49.98,7.22,2.15,10.68,3.25,1.5.48,3.15.91,4.61,1.45,1.28.48.48.65.05,1.32-1.82,2.82-1.65,9.33-1.96,12.84-1.45,16.03-3.16,32.12-4.31,48.17-.03.41.15,2.61-.2,2.63l-47.6-22c0-.13.82-.51.99-.63,1.52-1.08,3.4-2.11,5.02-3.05,8.95-5.18,18.12-10.08,26.88-15.54,1.02-.63,2.59-.97,2.39-2.44-.27-1.99-2.28-.77-3.26-.18-10.32,6.18-20.92,11.94-31.26,18.16-.27.17-.61.74-1.16.65.59-1.13,1.16-2.3,1.77-3.41,4.46-7.98,9.34-15.76,13.57-23.85.23-1.57-1.72-1.91-2.47-.71l-16.6,29.06c-.35.07-3.04-1.12-3.58-1.37-3.86-1.77-7.75-3.78-11.59-5.55-7.49-3.44-15.06-6.64-22.42-10.31-.82-.41-1.86-.55-2.45-1.29.88-.37,1.92-.6,2.8-.97,21.1-8.79,42.18-17.52,63.42-25.97,1.89-.75,3.77-1.81,5.9-2.18,3.05-.54,7.74,1.07,10.78,1.92Z"/>
      <path class="st1" d="M162.28,9.81c2.84,1.57,6.65,3.16,9.8,4,.49.13,2.78.48,2.92.58.15.1.14.24.13.4-.03.54-1.72,2.08-2.15,2.6-.62.73-1.26,1.51-1.89,2.26-9.54,11.33-19.14,22.62-28.82,33.91-.37.43-.72,1.08-1.14,1.55-.34.37-.73.7-1.08,1.07-.35-.3-.16-.83-.22-1.26-.18-1.29-.09-1.69-1.21-2.43-1.92-1.27-4.65-2.08-6.86-2.84-3.73-1.27-7.9-2.16-11.55-3.56-.23-.09-1.1-.14-1.1-.35.67-.8,1.37-1.6,2.08-2.36,11.75-12.51,23.45-24.83,35.15-37.27l.47-.21c1.49,1.72,3.49,2.81,5.46,3.9Z"/>
      <path class="st1" d="M137.29,56.58c.37,1.05.28,2.2.41,3.29,2.07,17.34,4.09,34.7,5.92,52.07-1.81,2.57-3.87,4.97-6.29,6.97l-.21.46c-1.87,1.45-3.54,3.07-5.55,4.34-.14-.09-.17-.18-.2-.34-.08-.41-.23-1.51-.21-1.89.05-.75.19-1.09.19-2.01.05-6.05.84-12.03,1.35-18.04,1.09-12.84,2.15-25.67,3.37-38.49.15-1.62.03-4.96.91-6.21.08-.12-.02-.25.3-.18Z"/>
      <path class="st1" d="M38.66,80.05s.05.15.16.2c28.28,12.79,56.42,25.93,84.57,38.89,1.4.64,3.34,1.21,4.61,1.96,1.12.65.46,1.34.79,2.41-.06.15-.17.21-.33.23-.24.02-3.84-1.64-4.4-1.91-.12-.05-.15-.23-.28-.29-29.59-13.73-59.04-27.63-88.42-41.62-1.09-.52-2.26-.96-3.38-1.4-.25-.33,1.1-.94,1.38-.78,1.8.7,3.54,1.53,5.3,2.32Z"/>
      <path class="st1" d="M163.36,4.56c4.62,1.36,9.15,3.53,13.04,6.41l.74.73c-.17.37-1.67.12-2.07.06-4.02-.59-9.6-3.05-13.05-5.13-.64-.38-1.83-1.1-2.37-1.53-.25-.2-1.09-.96-.68-1.21,1.45-.09,2.99.25,4.4.66Z"/>
    </g>
  </g>
</svg>