<?xml version="1.0" encoding="UTF-8"?>
<svg id="Layer_1" xmlns="http://www.w3.org/2000/svg" version="1.1" viewBox="0 0 321.52 312">
  <!-- Generator: Adobe Illustrator 29.0.1, SVG Export Plug-In . SVG Version: 2.1.0 Build 192)  -->
  <path d="M18.7.06l7.2,6-9.21,11.08c-.34,1.31,3.94,5.46,5.04,6.33l112.75-.02,5.52-5.96-9.6-11.5,7.19-5.99,15.19,17.58-9.15,10.97,9.14,10.68-9.14,11.44,9.18,10.67-9.15,10.99,9.12,11.14-9.2,10.97,9.11,11.05-9.04,11.06,9.15,10.67-9.22,11.06,9.22,11.06-5.98,7.45c1.52,4.51,2.93,9.11,3.67,13.84,8.32,53.18-41.17,97-93.07,82.01-40.47-11.69-62.79-56.35-47.87-95.86l-6.08-7.51,9.15-10.99-9.22-11.05,9.22-11.05-9.17-10.67,9.13-10.98-9.12-11.14,9.14-10.98-9.22-11.06,9.22-11.05-9.14-10.67,9.03-11.06L3.46,17.49,18.7.06ZM21.16,33.73l-4.53,5.87c0,.62,4.55,6.21,5.96,5.99l112.56-.25,4.78-5.74c-1.43-1.56-3.84-5.73-5.86-6l-112.91.12ZM21.82,55.39c-.78.23-5.19,5.48-5.17,6.33.01.45,4.63,6.25,5.94,5.98l112.11-.25,5.21-6.19c-1.93-1.52-3.85-5.66-6.28-5.99l-111.81.11ZM21.82,77.5l-5.19,5.88c0,.55,4.31,6.22,5.52,5.99h111.92c2.03-.27,4.41-4.45,5.87-6l-4.79-5.74-113.33-.13ZM21.96,134.45c.65.18.74-.18,1.11-.43,2.08-1.42,4.72-5.01,6.84-6.87,26.15-23,65.84-24.16,93.26-2.6,3.9,3.07,6.97,6.86,10.87,9.9l5.88-6.85-9.13-11.44,9.23-10.68c-1.77-1.46-3.69-5.7-5.93-5.99H21.38s-5.17,5.99-5.17,5.99l9.21,10.68-8.68,11.06,5.22,7.22ZM139.56,198.12c7.86-30.13-7.75-61.76-36.26-74.05-29.87-12.88-64.89-.96-80.54,27.33-7.74,13.98-9.64,29.74-6.55,45.4,8.72-.79,17.68-.94,26.18,1.45,12.47,3.51,21.63,12.39,29.82,21.95,3.55-1.03,6.57-3.24,10.09-4.4,6.64-2.2,13.1-2.35,19.85-.47,7.6-13.3,22.35-19.7,37.42-17.21ZM107.73,227.75c-4.74-1.13-8.93-3.67-13.93-3.97-8.84-.52-16.26,5.43-23.37,9.66-7.98-9.41-16.6-21.08-28.79-25.16-5.67-1.9-14.44-2.88-20.38-2.22-.54.06-1.34.07-1.5.72-.22.9,3.16,6.79,3.88,8,18.22,30.83,58.42,40.16,88.74,20.94,10.21-6.47,19.53-16.94,23.65-28.31-13.79-1.06-25.06,6.91-28.31,20.33Z"/>
  <path d="M233.23,77.54c65.65-4.6,108.01,68.83,69.87,122.94-31.36,44.49-97.7,43.9-128.43-.97-33.82-49.37-.82-117.81,58.56-121.97ZM248.8,87.58c-6.42-.31-12.92-1.02-19.26.41l-.2,32.75-25.11,4.29c-1.46.14-4.07,2.54-4.07,3.89v6.85h78.27v-6.41c0-1.83-2.34-3.82-4.06-4.34-7.39-2.24-16.98-2.16-24.44-4.3-.46-.13-.86-.17-1.13-.64v-32.5ZM219.61,90.23c-41.31,11.97-61.21,59.94-40.31,98.02,20.05,36.53,67.86,46.88,101.29,21.55,35.87-27.18,35.8-81.1.25-108.49-6.4-4.93-14.03-9.01-21.87-11.07v22.11c7.43,2.1,19.38,1.3,25,7.06,6.49,6.64,3.49,17.48,4.21,25.83l-4.47.97,4.71,42.65c-2.91,2.22-6.27,1.26-9.23,1.85s-5.86,3.81-9.41,3.89c-4.23.1-8.43-4.29-12.4-4.84-5.83-.81-10.57,4.85-17.65,4.85s-11.18-5.15-16.82-4.92c-4.44.19-8.67,4.94-13.25,4.92-3.45-.01-6.56-3.35-9.38-3.91-1.67-.34-9.68-.36-10.26-2.15l4.73-42.4-4.32-.64c.38-12.56-3.36-26.5,12.37-30.31,5.35-1.29,11.4-1.64,16.82-2.86v-22.11ZM214.75,165.41v-19.24l-.66-.66h-8.84l-1.06,2.92-3.59,32.45c2.81-.78,6.95,3.51,9.06,3.51,1.49,0,6.94-3.72,9.93-4.19,9.46-1.49,9.78,1.76,16.83,4,5.86,1.86,7.86-1.51,12.7-3.21,7.47-2.62,13.75-.25,20.24,3.41l8.12-3.57-3.55-34.6c-.22-.81-2.46-.7-3.22-.73-2.1-.08-5.18-.26-6.88.68v18.57l-.66.66h-8.84l-.66-.66v-18.57l-.66-.66h-8.4l-.66.66v19.24h-9.06l-.66-.66v-18.57l-.66-.66h-7.96c-.15,0-.67.59-1.11.44v19.46h-9.73Z"/>
  <path d="M19.74,301.38c2.15-21.25,25.41-32.86,44.76-27.51,2.19.6,7.62,3.6,8.94,3.42.67-.09,4.42-2.18,5.78-2.67,6.39-2.27,12.25-2.48,18.91-1.39,11.43-9.24,25.43-12.96,39.78-8.65,3.62,1.09,6.7,3.13,10.26,4.3,6.91-3.74,14.6-6.44,22.6-6.21,2.16.06,6.02,1.21,7.91.89,1.11-.19,5.33-3.38,6.87-4.2,24.5-12.99,50.61-5.07,66.62,16.53,2.99-1.05,6.2-2.4,9.34-2.92,15.43-2.59,32.3,4.85,38.47,19.67.94,2.26,2.76,8.24,2.76,10.51v8.62h-9.73v-6.85c0-11.68-9.95-20.95-21.13-22.21-9.33-1.05-15.6,1.34-22.84,6.94-2.3-2.96-3.84-6.43-6.08-9.42-15.21-20.32-43.13-23.46-61.7-5.67-11.75-3.83-23.98-1.71-33.14,6.66-14.53-12.39-34.52-10.95-47.35,3.07-.95.26-4.98-1.48-6.58-1.66-8.42-.94-14.9,1.68-21.17,7.03-2.41-1.17-4.19-3.27-6.56-4.51-11.23-5.89-28.73-2.02-34.57,9.82-.73,1.49-2.44,6.27-2.44,7.73v9.06h-9.73c.24-3.34-.33-7.1,0-10.39Z"/>
  <polygon points="258.97 302.04 258.97 311.11 258.3 311.77 249.46 311.77 248.8 311.11 248.8 302.04 258.97 302.04"/>
  <path d="M219.61,292.31v9.73h-9.73v-9.51c.28-.41,1.11-.66,1.55-.66h7.08c.15,0,.67.59,1.11.44Z"/>
  <path d="M200.15,292.31v9.73h-9.73v-9.51c2.7-1.46,6.73-.47,9.73-.22Z"/>
  <path d="M180.7,292.31v9.73h-9.73v-9.51c.83-.64,2.98-.67,4.17-.68,1.87-.02,3.74.09,5.55.46Z"/>
  <path d="M161.24,292.31v9.06l-.66.66h-9.06v-9.73c3.15-.86,6.53-.45,9.73,0Z"/>
  <path d="M126.75,311.77h-9.06l-.66-.66v-9.06h9.51c1.12,0,.22,2.6.2,3.3-.05,2.15.29,4.31.02,6.43Z"/>
  <rect x="58.65" y="302.04" width="9.73" height="9.73"/>
  <rect x="78.11" y="302.04" width="9.73" height="9.73"/>
  <rect x="97.57" y="302.04" width="9.73" height="9.73"/>
  <path d="M278.42,302.04v9.06l-.66.66h-8.84l-.57-.66c-.01-.18.35-.33.35-.44v-8.62h9.73Z"/>
  <polygon points="75.29 159.5 69.06 165.4 62.2 158.55 69.04 151.71 75.69 158.32 75.29 159.5"/>
  <path d="M54.52,175.42c-.55.58-4.99,4.63-5.33,4.56l-6.43-6.78,6.82-6.9,6.85,6.85c-.86.58-1.29,1.61-1.92,2.28Z"/>
  <path d="M78.17,209.12c-.07-.04-.35-.91-.69-1.27-.75-.77-5.65-5.14-5.55-5.52l6.84-6.44,6.83,6.82c-.07.42-5.35,5.68-5.91,6.05-.45.3-.98.67-1.51.36Z"/>
  <path d="M127.5,176.51c1.64-.43,5.3,5.37,6.73,6.43l-6.44,6.76-6.76-6.44c-.09-.49,5.97-6.61,6.47-6.75Z"/>
  <path d="M39.35,150.66c-.5-.51-.81-1.36-1.46-1.83l6.83-6.85,6.85,6.85-6.85,6.85c-1.48-1.87-3.79-3.38-5.37-5.01Z"/>
  <path d="M94.18,189.88c.48-.5,4.14-3.71,4.43-3.66l6.44,6.76-6.76,6.44-6.44-6.44c-.05-.3,1.94-2.7,2.33-3.1Z"/>
</svg>