<?xml version="1.0" encoding="UTF-8"?>
<svg id="Layer_1" xmlns="http://www.w3.org/2000/svg" version="1.1" viewBox="0 0 435 429">
  <!-- Generator: Adobe Illustrator 29.0.1, SVG Export Plug-In . SVG Version: 2.1.0 Build 192)  -->
  <path d="M11.08,160.55L191.33,17.04l107.07,84.66v-16.96h45.89v172.59c6.9.19,13.45-1.28,19.46,2.99,7.77,5.52,10.17,26.66,13.45,36.44,8.7,25.99,24.2,53.72,45.91,70.84-11.1,16.37-30.02,28.1-47.92,35.85-56.59,24.52-121.6,20.11-165.55-25.9,10.74-7.09,20.99-13.46,29.43-23.43,1.57-1.86,4-4.6,4.48-7H53.98v-163.61l-12.47,9.93-30.43-31.88v-1ZM298.39,139.6v-18.46l-107.06-85.17L33.03,161.57c2.32,2.16,7.59,11.66,10.92,10.5,2.71-.94,15.27-12.75,15.27-12.75L191.14,53.98l107.25,85.62ZM298.39,257.32v-98.26l-107.06-85.17-122.4,98.13v160.12h73.32l1.5-1.5v-106.74c0-2.27,7.63-8.51,10.54-8.42,23.06,1.52,49.11-2.24,71.8-.1,5.1.48,13.43,4.75,13.43,10.51v106.25h13.97c2.99-8.08,6.75-15.89,9.24-24.17,3.09-10.26,7.38-39.99,13.67-46.19,1.06-1.05,6.45-4.45,7.52-4.45h14.47ZM329.32,99.7h-15.96v157.62h15.96V99.7ZM183.67,230.39h-24.94v101.76h24.94v-101.76ZM224.57,230.39h-25.94v101.76h25.94v-101.76ZM284.43,284.26h73.82l-3.65-12.02-65.72-.02-1.57.65-2.88,11.39ZM363.14,300.32h-82.61c-5.58,26.15-18.04,50.55-36.02,70.23l-9.97,8.97c14.12,10.77,30.97,18.92,48.75,21.34,11.9-23.98,13.86-51.11,20.58-76.71,3.06,26.1,8.67,52.49,5.48,78.82l24.95-2c-.48-13.91-3.13-27.89-7.99-40.89l14.93-3.97c3.9,13.33,7.01,26.93,8.03,40.86l23.94-9.5-14.87-27.93,13.85-6.47,14.57,26.88,15.36-10.41c-17.79-19.87-31.07-43.74-39-69.24Z"/>
  <path d="M389.04,8.05c2.78,17.83,14.12,29.15,31.93,31.93l.18,11.18c-17.78,4.2-29.03,13.92-32.1,32.45l-11.18.17c-3.99-17.82-13.95-29.25-32.45-32.1l-.17-11.18c.23-.97,11.18-3.24,13.69-4.47,10.5-5.14,16.85-16.81,18.41-27.98h11.7ZM395.16,46.81l-11.6-11.88-11.3,10.51,11.43,12.36c2.94-4.18,6.72-9,11.47-10.99Z"/>
  <path d="M88.69,379.24c28.28-2.5,32.36,40,6.6,43.6-33.03,4.61-34.48-41.13-6.6-43.6ZM89.63,394.14c-8.47,1.56-8.03,16.25,3.54,13.6,8.29-1.9,4.64-15.1-3.54-13.6Z"/>
  <path d="M55.84,36.98c1.41,9.41,4.73,12.27,13.97,13.97l.17,11.18c-8.86,2.71-12.66,4.67-14.14,14.49l-12.36-.84c-.93-8.53-5.16-11.12-13-12.94l-.49-11.37c9.12-2.81,12.04-4.34,13.95-14.18l11.9-.31Z"/>
  <path d="M411.85,186.73c21.46-3.89,21.99,30.05-.17,26.63-13.45-2.08-14.37-24,.17-26.63Z"/>
  <path d="M185.4,126.87c38.15-5.99,47.59,47,14.27,56.17-40.14,11.04-50.85-50.42-14.27-56.17ZM201.28,165.2c13.3-13.31-7.63-32.91-20.16-19.66-12.24,12.95,7.33,32.5,20.16,19.66Z"/>
</svg>